<?xml version="1.0" encoding="UTF-8"?>
<svg id="Layer_1" data-name="Layer 1" xmlns="http://www.w3.org/2000/svg" viewBox="0 0 1798.16 1798.17">
  <defs>
    <style>
      .cls-1 {
        fill-rule: evenodd;
      }

      .cls-1, .cls-2 {
        fill: #fff;
      }
    </style>
  </defs>
  <path class="cls-2" d="M0,1798.17v-899.08c0-247.96,87.58-459.79,262.82-635.51C438.51,87.88,650.6,0,899.06,0s459.79,87.88,635.51,263.58c175.72,175.72,263.58,387.55,263.58,635.51h-449.55c0-123.97-44.07-229.77-132.17-317.37-87.58-88.11-193.39-132.17-317.37-132.17s-229.76,44.07-317.34,132.17c-88.14,87.6-132.17,193.4-132.17,317.37v899.08H0Z"/>
  <path class="cls-1" d="M1573.38,1166.42c-47.66-.68-85.66-38.14-85.66-85.66,0-34.7,20.6-64.56,50.25-78.03h-189.36v449.55h106.06v-124.7c0-65.27,53.42-118.7,118.7-118.7h.02c65.28,0,118.7,53.43,118.7,118.7v124.7h106.06v-449.55h-189.36c29.64,13.47,50.25,43.33,50.25,78.03,0,47.41-37.82,84.96-85.66,85.66"/>
</svg>